<svg xmlns="http://www.w3.org/2000/svg" viewBox="0 0 100 120" fill="none">
  <path d="M50 5 L95 25 L95 75 C95 90 75 110 50 115 C25 110 5 90 5 75 L5 25 Z" fill="#c41e3a" stroke="#8b0000" stroke-width="2"/>
  <!-- Wolf head -->
  <ellipse cx="50" cy="60" rx="25" ry="30" fill="#808080"/>
  <!-- Ears -->
  <polygon points="30,40 25,20 40,35" fill="#808080"/>
  <polygon points="70,40 75,20 60,35" fill="#808080"/>
  <!-- Inner ears -->
  <polygon points="32,38 28,25 38,35" fill="#696969"/>
  <polygon points="68,38 72,25 62,35" fill="#696969"/>
  <!-- Eyes -->
  <ellipse cx="40" cy="50" rx="5" ry="6" fill="#ffd700"/>
  <ellipse cx="60" cy="50" rx="5" ry="6" fill="#ffd700"/>
  <circle cx="40" cy="50" r="2" fill="black"/>
  <circle cx="60" cy="50" r="2" fill="black"/>
  <!-- Snout -->
  <ellipse cx="50" cy="72" rx="12" ry="10" fill="#a9a9a9"/>
  <ellipse cx="50" cy="68" rx="5" ry="3" fill="black"/>
</svg>
